/* XPM */
static char * cursor_hand_closed_xpm[] = {
"24 29 190 2",
"  	c None",
". 	c #25252F",
"+ 	c #242329",
"@ 	c #2C2B34",
"# 	c #3E3E49",
"$ 	c #3E3E48",
"% 	c #5F6679",
"& 	c #070717",
"* 	c #535359",
"= 	c #C5C7CC",
"- 	c #C5C7CD",
"; 	c #44454D",
"> 	c #484D5F",
", 	c #1A1B22",
"' 	c #252631",
") 	c #0E0E1D",
"! 	c #636468",
"~ 	c #CFD1D6",
"{ 	c #CED0D6",
"] 	c #424248",
"^ 	c #1D1E28",
"/ 	c #292C36",
"( 	c #282B37",
"_ 	c #292C35",
": 	c #2F313D",
"< 	c #3A3E4B",
"[ 	c #202022",
"} 	c #616267",
"| 	c #63656D",
"1 	c #2F323F",
"2 	c #10101E",
"3 	c #67676B",
"4 	c #D2D4D8",
"5 	c #CFD2D6",
"6 	c #47464D",
"7 	c #383840",
"8 	c #4D4D55",
"9 	c #151520",
"0 	c #57585E",
"a 	c #35353C",
"b 	c #2D2E38",
"c 	c #4C4F61",
"d 	c #3B3C3D",
"e 	c #C8CACF",
"f 	c #B8BABF",
"g 	c #2D2C36",
"h 	c #191823",
"i 	c #656469",
"j 	c #D4D6DA",
"k 	c #504F56",
"l 	c #7A7B83",
"m 	c #AAABB1",
"n 	c #2A2930",
"o 	c #C0C2C6",
"p 	c #55565D",
"q 	c #282831",
"r 	c #2C2D3B",
"s 	c #0F0F12",
"t 	c #7D7E82",
"u 	c #D0D2D7",
"v 	c #CBCDD1",
"w 	c #20202E",
"x 	c #1C1C25",
"y 	c #5F5F63",
"z 	c #D5D7DB",
"A 	c #D3D5D9",
"B 	c #47474D",
"C 	c #7D7D84",
"D 	c #ACADB2",
"E 	c #24242A",
"F 	c #C1C2C7",
"G 	c #5A5A61",
"H 	c #6C6C72",
"I 	c #ABACB1",
"J 	c #313139",
"K 	c #232327",
"L 	c #69696E",
"M 	c #4A4952",
"N 	c #67666D",
"O 	c #D6D8DD",
"P 	c #ACAEB2",
"Q 	c #BEBFC4",
"R 	c #C9CBCF",
"S 	c #9E9FA5",
"T 	c #CACDD1",
"U 	c #5D5E64",
"V 	c #77777D",
"W 	c #B9BABE",
"X 	c #323239",
"Y 	c #0A0A17",
"Z 	c #4B4B51",
"` 	c #D1D3D7",
" .	c #CBCDD2",
"..	c #62636B",
"+.	c #6B6B72",
"@.	c #E6E9ED",
"#.	c #E5E7EB",
"$.	c #E2E5E9",
"%.	c #E4E7EB",
"&.	c #D7DADF",
"*.	c #D2D5DA",
"=.	c #8A8C92",
"-.	c #9EA0A5",
";.	c #313138",
">.	c #3B3B44",
",.	c #C7C9CE",
"'.	c #D1D3D8",
").	c #707077",
"!.	c #74747B",
"~.	c #D7D9DD",
"{.	c #E7E9ED",
"].	c #EDEFF3",
"^.	c #E9EBEF",
"/.	c #DEE1E6",
"(.	c #D3D6DB",
"_.	c #CCCED3",
":.	c #CED1D5",
"<.	c #BFC0C5",
"[.	c #2E2E35",
"}.	c #26262F",
"|.	c #DBDDE0",
"1.	c #C6C8CC",
"2.	c #D6D9DE",
"3.	c #E2E4E9",
"4.	c #E6E9EE",
"5.	c #E3E6EB",
"6.	c #D9DCE2",
"7.	c #D4D6DB",
"8.	c #CED1D6",
"9.	c #CCCFD4",
"0.	c #C2C4C9",
"a.	c #2C2B31",
"b.	c #5D5D67",
"c.	c #B7B9BC",
"d.	c #D3D5DA",
"e.	c #D6D8DE",
"f.	c #DADDE3",
"g.	c #DBDDE3",
"h.	c #D7D9DE",
"i.	c #D0D3D8",
"j.	c #C3C5CA",
"k.	c #25242B",
"l.	c #171720",
"m.	c #9D9EA2",
"n.	c #D1D3D9",
"o.	c #D4D7DC",
"p.	c #D2D5DB",
"q.	c #CFD2D7",
"r.	c #C8CBD1",
"s.	c #CACCD0",
"t.	c #9B9DA5",
"u.	c #1A1B24",
"v.	c #040412",
"w.	c #98999E",
"x.	c #CACDD3",
"y.	c #CCCFD5",
"z.	c #C7CACF",
"A.	c #C5C8CD",
"B.	c #8F9096",
"C.	c #30323B",
"D.	c #2C2B36",
"E.	c #727277",
"F.	c #C4C6CB",
"G.	c #C4C6CC",
"H.	c #C5C8CE",
"I.	c #C6C8CD",
"J.	c #C4C6CA",
"K.	c #C1C4C9",
"L.	c #C0C2C7",
"M.	c #909196",
"N.	c #2E2E38",
"O.	c #151522",
"P.	c #65656B",
"Q.	c #C4C7CC",
"R.	c #C3C5C9",
"S.	c #C2C4C8",
"T.	c #919297",
"U.	c #2A2A34",
"V.	c #303034",
"W.	c #808185",
"X.	c #7A7C7E",
"Y.	c #78797C",
"Z.	c #787A7C",
"`.	c #78797B",
" +	c #77797B",
".+	c #7A7B7E",
"++	c #7B7C7F",
"@+	c #57585A",
"#+	c #1E1F26",
"$+	c #000000",
"                                                ",
"                                                ",
"                                                ",
"                                                ",
"                                                ",
"                                                ",
"                . +                             ",
"              @ # $ %                           ",
"            & * = - ; >                         ",
"    , '     ) ! ~ { ] ^ / ( _ : <               ",
"  [ } | 1   2 3 4 5 6 7 8 9 0 a b c             ",
"  d e f g   h i j ~ k l m n o p q r             ",
"  s t u v w x y z A B C D E F G H I J           ",
"    K L 4 m M N z O P Q R S T U V W X           ",
"    Y Z `  ...+.z @.#.$.%.&.*.=.-.f ;.          ",
"      >.,.'.).!.~.{.].^.@./.(._.:.<.[.          ",
"        }.|.e 1.2.3.4.5./.6.7.8.9.0.a.          ",
"          b.c.d.e.f./.g.h.(.i.8.7.j.k.          ",
"          l.m.u n.*.o.p.q.9.r.q.s.t.u.          ",
"          v.w.A 9.x.y.x.z.A.j.= B.C.            ",
"            D.E.F.G.H.I.J.K.L.L.M.N.            ",
"            O.P.,.j.Q.F.R.S.o L.T.U.            ",
"              V.W.X.Y.Z.`. +.+++@+#+            ",
"                    $+$+$+$+$+$+$+              ",
"                                                ",
"                                                ",
"                                                ",
"                                                ",
"                                                "};
