/* XPM */
static char * cursor_hand_open_xpm[] = {
"24 28 236 2",
"  	c None",
". 	c #2F3140",
"+ 	c #2F313B",
"@ 	c #505058",
"# 	c #787980",
"$ 	c #787983",
"% 	c #5A5E6E",
"& 	c #63697E",
"* 	c #080817",
"= 	c #5A5A5E",
"- 	c #CCCFD4",
"; 	c #47474D",
"> 	c #15151C",
", 	c #202128",
"' 	c #1E1E28",
") 	c #1E1F26",
"! 	c #24242E",
"~ 	c #2C2E39",
"{ 	c #0B0B19",
"] 	c #5F5E61",
"^ 	c #C9CBD0",
"/ 	c #CBCDD2",
"( 	c #4D4C53",
"_ 	c #565760",
": 	c #777880",
"< 	c #171620",
"[ 	c #8A8B91",
"} 	c #44444B",
"| 	c #2B2B36",
"1 	c #343648",
"2 	c #0C0C1B",
"3 	c #626265",
"4 	c #C9CCD0",
"5 	c #52525A",
"6 	c #797981",
"7 	c #A9AAAF",
"8 	c #2F2F36",
"9 	c #BDBEC3",
"0 	c #55555C",
"a 	c #3A3941",
"b 	c #545560",
"c 	c #606471",
"d 	c #616165",
"e 	c #CACCD1",
"f 	c #818289",
"g 	c #ADAFB4",
"h 	c #313038",
"i 	c #C3C5C9",
"j 	c #5D5E65",
"k 	c #79797F",
"l 	c #BCBDC1",
"m 	c #28292F",
"n 	c #0D0C1B",
"o 	c #646367",
"p 	c #CCCED3",
"q 	c #CDCFD4",
"r 	c #515159",
"s 	c #83848C",
"t 	c #AEAFB5",
"u 	c #323139",
"v 	c #C4C6CB",
"w 	c #606068",
"x 	c #78797E",
"y 	c #BABBC0",
"z 	c #302F36",
"A 	c #0F0F1D",
"B 	c #666669",
"C 	c #CED1D6",
"D 	c #CFD1D6",
"E 	c #505059",
"F 	c #AFB0B5",
"G 	c #323239",
"H 	c #C5C6CB",
"I 	c #5F5F68",
"J 	c #0A0A10",
"K 	c #1D1D24",
"L 	c #282933",
"M 	c #0F0F1E",
"N 	c #66676B",
"O 	c #D0D3D7",
"P 	c #83848B",
"Q 	c #AEB0B4",
"R 	c #323138",
"S 	c #C4C6CA",
"T 	c #5F5F67",
"U 	c #BABCC1",
"V 	c #2B2C32",
"W 	c #353536",
"X 	c #A1A3A8",
"Y 	c #94959C",
"Z 	c #1A1B25",
"` 	c #11101D",
" .	c #67676B",
"..	c #D3D5D9",
"+.	c #D0D2D6",
"@.	c #4F4F57",
"#.	c #808188",
"$.	c #ADAEB4",
"%.	c #313137",
"&.	c #C3C4C9",
"*.	c #5C5D65",
"=.	c #BDBEC2",
"-.	c #26262C",
";.	c #29292B",
">.	c #ACAEB3",
",.	c #C0C1C7",
"'.	c #707179",
").	c #353541",
"!.	c #616065",
"~.	c #D5D7DB",
"{.	c #4D4D55",
"].	c #ADAEB3",
"^.	c #313037",
"/.	c #5C5D64",
"(.	c #5A5B5E",
"_.	c #B7B9BE",
":.	c #DBDDE0",
"<.	c #454551",
"[.	c #25252E",
"}.	c #626267",
"|.	c #636369",
"1.	c #94959A",
"2.	c #B5B7BC",
"3.	c #4B4B51",
"4.	c #C6C8CC",
"5.	c #5E5E66",
"6.	c #78797F",
"7.	c #BBBCC1",
"8.	c #2C2C32",
"9.	c #06060F",
"0.	c #47484D",
"a.	c #CED1D5",
"b.	c #605F67",
"c.	c #6A6A71",
"d.	c #DDDFE3",
"e.	c #D3D5DA",
"f.	c #D8DADE",
"g.	c #CED0D5",
"h.	c #63646B",
"i.	c #7D7E84",
"j.	c #B8B9BE",
"k.	c #333239",
"l.	c #45454C",
"m.	c #DBDDE1",
"n.	c #66666E",
"o.	c #E8EBEE",
"p.	c #EFF1F4",
"q.	c #EAECF0",
"r.	c #E9EBF0",
"s.	c #DEE0E5",
"t.	c #D3D6DB",
"u.	c #BCBEC3",
"v.	c #C5C7CC",
"w.	c #BBBDC2",
"x.	c #31313C",
"y.	c #D6D8DC",
"z.	c #A4A5AA",
"A.	c #A6A7AC",
"B.	c #D7D9DE",
"C.	c #E5E7EB",
"D.	c #EAECF1",
"E.	c #E6E9EE",
"F.	c #E2E5E9",
"G.	c #DCDFE4",
"H.	c #D4D7DC",
"I.	c #CDCFD5",
"J.	c #C2C3C8",
"K.	c #2D2C33",
"L.	c #0D0D19",
"M.	c #A9AAB0",
"N.	c #CBCDD1",
"O.	c #D2D4D9",
"P.	c #DDE0E5",
"Q.	c #E1E4E9",
"R.	c #DEE1E6",
"S.	c #D9DBE1",
"T.	c #D5D8DD",
"U.	c #C1C3C8",
"V.	c #29282F",
"W.	c #1A1A23",
"X.	c #A0A1A4",
"Y.	c #D0D2D8",
"Z.	c #D2D4DA",
"`.	c #D8DAE0",
" +	c #D6D8DE",
".+	c #CFD2D8",
"++	c #CBCED4",
"@+	c #D1D4D9",
"#+	c #D7D9DD",
"$+	c #BDBFC6",
"%+	c #1C1C23",
"&+	c #0A0A17",
"*+	c #A1A3A6",
"=+	c #DADDE1",
"-+	c #CDD0D6",
";+	c #CFD1D7",
">+	c #C9CCD2",
",+	c #C7CACF",
"'+	c #C8CBD0",
")+	c #9C9DA2",
"!+	c #42444D",
"~+	c #4D4D56",
"{+	c #8C8D91",
"]+	c #C6C9CF",
"^+	c #C6C9CE",
"/+	c #C5C7CB",
"(+	c #C2C4C9",
"_+	c #C0C2C7",
":+	c #8F9196",
"<+	c #2F303A",
"[+	c #181724",
"}+	c #66666B",
"|+	c #C6C8CD",
"1+	c #C3C6CA",
"2+	c #C4C7CC",
"3+	c #C4C6CC",
"4+	c #C3C5CA",
"5+	c #C0C2C6",
"6+	c #909197",
"7+	c #2B2B35",
"8+	c #0D0D1C",
"9+	c #434348",
"0+	c #A5A6AA",
"a+	c #9E9FA3",
"b+	c #9C9EA1",
"c+	c #9B9DA0",
"d+	c #9B9C9F",
"e+	c #9D9EA2",
"f+	c #727376",
"g+	c #22242C",
"h+	c #0D0D0D",
"i+	c #0C0C0C",
"j+	c #0A0A0B",
"k+	c #0A0B0B",
"l+	c #0B0B0B",
"m+	c #070708",
"                                                ",
"                . +                             ",
"              @ # $ % &                         ",
"            * = - - ; > , ' ) ! ~               ",
"            { ] ^ / ( _ : < [ } | 1             ",
"            2 3 4 / 5 6 7 8 9 0 a b c           ",
"            2 d ^ e 5 f g h i j k l m           ",
"            n o p q r s t u v w x y z           ",
"            A B C D E s F G H I k y 8           ",
"  J K L     M N O D @ P Q R S T k U V           ",
"  W X Y Z   `  ...+.@.#.$.%.&.*.k =.-.          ",
"  ;.>.,.'.).' !.~.+.{.#.].^.&./.k =.-.          ",
"    (._.:.<.[.}.~.~.|.1.2.3.4.5.6.7.8.          ",
"    9.0.a.+.b.c.~.d...e.f./ g.h.i.j.k.          ",
"      l.m.p w n.~.o.p.q.r.s.t.u.v.w.8           ",
"      x.c.y.z.A.B.C.D.E.F.G.H.I.p J.K.          ",
"        L.M.N.O.B.P.Q.R.S.T.O.I.D U.V.          ",
"          W.X.Y.Z.T.`. +e..+++@+#+$+%+          ",
"          &+*+=+Y.-+;+-+>+,+v.'+)+!+            ",
"            ~+{+v.v.]+^+/+(+_+U.:+<+            ",
"            [+}+|+1+2+3+4+(+_+5+6+7+            ",
"            8+9+0+a+b+b+c+d+e+a+f+g+            ",
"                h+i+j+k+k+k+l+l+m+              ",
"                                                ",
"                                                ",
"                                                ",
"                                                ",
"                                                "};
